<?xml version="1.0" encoding="utf-8"?>
<!-- Generator: Adobe Illustrator 27.4.1, SVG Export Plug-In . SVG Version: 6.00 Build 0)  -->
<svg version="1.1" id="Layer_1" xmlns="http://www.w3.org/2000/svg" xmlns:xlink="http://www.w3.org/1999/xlink" x="0px" y="0px"
	 viewBox="0 0 1200 1200" style="enable-background:new 0 0 1200 1200;" xml:space="preserve">
<style type="text/css">
	.st0{fill:#5BC682;}
	.st1{fill:#F4F4F4;}
</style>
<g>
	<path class="st0" d="M776.1,215.5v179.8c0,163.1-132.2,295.3-295.3,295.3l0,0c-19.4,0-38.4-1.9-56.8-5.5v115.5h295.3
		c163.1,0,295.3-132.2,295.3-295.3l0,0C1014.6,361.7,912,242,776.1,215.5z"/>
	<circle class="st0" cx="519.7" cy="980.7" r="119.3"/>
	<path class="st1" d="M480.7,690.7c163.1,0,295.3-132.2,295.3-295.3V215.5V100H185.4v295.3c0,143.7,102.6,263.3,238.6,289.8
		C442.3,688.7,461.3,690.7,480.7,690.7L480.7,690.7z"/>
</g>
</svg>
